<svg id="Layer_1" data-name="Layer 1" xmlns="http://www.w3.org/2000/svg" viewBox="0 0 259 81"><defs><style>.cls-1{opacity:0.45;}.cls-2{fill:#a684ae;}</style></defs><title>Artboard 2</title><g class="cls-1"><path class="cls-2" d="M228,5.5A26.51,26.51,0,0,1,254.5,32V50A26.51,26.51,0,0,1,228,76.5H32A26.51,26.51,0,0,1,5.5,50V32A26.51,26.51,0,0,1,32,5.5H228M228,4H32A28,28,0,0,0,4,32V50A28,28,0,0,0,32,78H228a28,28,0,0,0,28-28V32A28,28,0,0,0,228,4Z"/></g><path d="M41.8,32h.93v7.47c1.17-1.55,3.82-5.21,5.49-7.47h1.07l-4.36,5.91,4.5,8.38H48.32l-4-7.59-1.57,2v5.54H41.8Z"/><path d="M51,46.27v-15h.92v15Z"/><path d="M54.61,31.31h.91v2h-.91Zm0,4.46h.91v10.5h-.91Z"/><path d="M59.22,41c.63-.84,3-3.87,4-5.26h1.05c-1,1.34-2.14,2.79-3.16,4.11l3.55,6.39H63.55l-3.1-5.65c-.31.38-.9,1.16-1.23,1.56v4.09H58.3v-15h.92Z"/><path d="M70.06,46.27V36.61H68.6v-.84h1.46V34c0-1.41.41-2.84,2.2-2.84a2.65,2.65,0,0,1,.77.11v.88a3.63,3.63,0,0,0-.78-.1c-.92,0-1.27.6-1.27,1.89v1.79h1.76v.84H71v9.66Z"/><path d="M80.23,40.88c0,3.61-1.14,5.58-3.37,5.58s-3.42-1.9-3.42-5.56,1.33-5.3,3.44-5.3S80.23,37.35,80.23,40.88Zm-5.83,0c0,3.25.93,4.7,2.44,4.7s2.44-1.49,2.44-4.74c0-2.93-.85-4.43-2.44-4.43S74.4,37.68,74.4,40.92Z"/><path d="M82.41,39.36c0-1.64,0-2.84,0-3.59h.89c0,.33,0,.85,0,2a3,3,0,0,1,2.8-2.12v1c-1.87.12-2.79,1.67-2.79,3.56v6.1h-.92Z"/><path d="M97.35,44.7a13,13,0,0,0,.09,1.57h-.86a7.76,7.76,0,0,1-.1-1.33,2.47,2.47,0,0,1-2.56,1.52c-2,0-2.71-1.55-2.71-3,0-1.78,1.18-3.31,4-3.31a8.82,8.82,0,0,1,1.26,0V38.65c0-1-.21-2.21-1.88-2.21-1.89,0-2,1.39-2,2.11h-.91a2.74,2.74,0,0,1,3-2.95c1.9,0,2.75,1,2.75,2.86Zm-.87-3.64A8,8,0,0,0,95.27,41c-2.19,0-3.12,1.07-3.12,2.44a1.94,1.94,0,0,0,1.91,2.19c1.73,0,2.42-1.19,2.42-3.84Z"/><path d="M98.69,35.77h1.55V32.85h.9v2.92h2v.84h-2v7.65c0,.8.18,1.32,1,1.32a4.32,4.32,0,0,0,.84-.07v.76a3.53,3.53,0,0,1-1.08.15c-1,0-1.66-.42-1.66-1.92V36.61H98.69Z"/><path d="M108.84,43.35A2.13,2.13,0,0,0,111,45.62a1.87,1.87,0,0,0,2-2c0-1.31-.71-1.87-2.17-2.46-2-.78-2.62-1.49-2.62-2.93A2.49,2.49,0,0,1,111,35.6a2.57,2.57,0,0,1,2.77,2.81h-.94a1.81,1.81,0,0,0-1.87-2,1.59,1.59,0,0,0-1.75,1.75c0,1,.36,1.44,1.94,2.07,1.9.75,2.85,1.43,2.85,3.3a2.74,2.74,0,0,1-3.06,2.9c-2,0-3-1.18-3.06-3.11Z"/><path d="M116.46,41.08c0,2.53.48,4.54,2.36,4.54a2.33,2.33,0,0,0,2.25-2.21H122a3.23,3.23,0,0,1-3.18,3.05c-2.89,0-3.29-2.81-3.29-5.4,0-3.32,1-5.46,3.39-5.46,2.58,0,3.17,2.27,3.17,4.82,0,.09,0,.35,0,.66Zm4.69-.82c0-2.33-.56-3.81-2.25-3.81-2.27,0-2.37,3.11-2.42,3.81Z"/><path d="M134.37,31.31V43.72c0,.87,0,1.93,0,2.55h-.89c0-.27,0-1.06,0-1.6a2.41,2.41,0,0,1-2.56,1.79c-2.17,0-3.13-1.77-3.13-5.56,0-3.44,1.36-5.3,3.4-5.3a2.17,2.17,0,0,1,2.29,1.27V31.31Zm-5.64,9.59c0,3.42.85,4.68,2.31,4.68,1.88,0,2.42-1.67,2.42-4.73,0-3.48-.58-4.38-2.29-4.38C129.75,36.47,128.73,37.8,128.73,40.9Z"/><path d="M143.34,40.88c0,3.61-1.14,5.58-3.38,5.58s-3.41-1.9-3.41-5.56,1.33-5.3,3.44-5.3S143.34,37.35,143.34,40.88Zm-5.83,0c0,3.25.93,4.7,2.43,4.7s2.44-1.49,2.44-4.74c0-2.93-.85-4.43-2.44-4.43S137.51,37.68,137.51,40.92Z"/><path d="M146.43,41c.63-.84,2.95-3.87,4-5.26h1.05c-1,1.34-2.14,2.79-3.16,4.11l3.55,6.39h-1.07l-3.1-5.65c-.31.38-.9,1.16-1.23,1.56v4.09h-.92v-15h.92Z"/><path d="M158.92,43.54c0,1.18,0,2.25,0,2.73h-.87a9.72,9.72,0,0,1-.07-1.56,2.5,2.5,0,0,1-2.6,1.75c-1,0-2.62-.34-2.62-3.13V35.77h.93v7.32c0,1.55.48,2.53,1.9,2.53S158,44.76,158,42.1V35.77h.94Z"/><path d="M161.62,38.92c0-1.73,0-2.63,0-3.15h.89c0,.37,0,.94,0,1.52a2.38,2.38,0,0,1,2.37-1.69,2,2,0,0,1,2.2,1.66,2.53,2.53,0,0,1,2.53-1.66c1.18,0,2.46.55,2.46,3v7.68h-.92V38.78c0-1.21-.33-2.31-1.73-2.31-1.56,0-2.12,1.47-2.12,3v6.84h-.92V38.82c0-1.52-.5-2.35-1.69-2.35-1.44,0-2.18,1.45-2.18,3.17v6.63h-.92Z"/><path d="M175.22,41.08c0,2.53.48,4.54,2.36,4.54s2.18-1.91,2.25-2.21h.93a3.23,3.23,0,0,1-3.19,3.05c-2.89,0-3.29-2.81-3.29-5.4,0-3.32,1.06-5.46,3.4-5.46,2.57,0,3.16,2.27,3.16,4.82,0,.09,0,.35,0,.66Zm4.69-.82c0-2.33-.56-3.81-2.25-3.81-2.27,0-2.38,3.11-2.42,3.81Z"/><path d="M183,39c0-2.15,0-2.8,0-3.24h.89c0,.25,0,.65,0,1.56a2.57,2.57,0,0,1,2.6-1.73c1.4,0,2.71.72,2.71,3.19v7.48h-.94V38.93c0-1.44-.56-2.46-1.89-2.46-1.75,0-2.46,1.2-2.46,3.72v6.08H183Z"/><path d="M190.52,35.77h1.55V32.85h.9v2.92h2v.84h-2v7.65c0,.8.18,1.32,1,1.32a4.32,4.32,0,0,0,.84-.07v.76a3.53,3.53,0,0,1-1.08.15c-.94,0-1.66-.42-1.66-1.92V36.61h-1.55Z"/><path d="M202.06,44.7c0,.75.06,1.34.08,1.57h-.85a7.61,7.61,0,0,1-.11-1.33,2.45,2.45,0,0,1-2.56,1.52c-2,0-2.71-1.55-2.71-3,0-1.78,1.19-3.31,4-3.31a8.67,8.67,0,0,1,1.25,0V38.65c0-1-.21-2.21-1.87-2.21-1.9,0-2,1.39-2,2.11h-.92a2.74,2.74,0,0,1,3-2.95c1.9,0,2.75,1,2.75,2.86Zm-.88-3.64A7.87,7.87,0,0,0,200,41c-2.18,0-3.12,1.07-3.12,2.44a2,2,0,0,0,1.92,2.19c1.73,0,2.41-1.19,2.41-3.84Z"/><path d="M203.39,35.77h1.55V32.85h.9v2.92h2v.84h-2v7.65c0,.8.19,1.32,1,1.32a4.21,4.21,0,0,0,.83-.07v.76a3.48,3.48,0,0,1-1.08.15c-.94,0-1.66-.42-1.66-1.92V36.61h-1.55Z"/><path d="M209.44,31.31h.91v2h-.91Zm0,4.46h.91v10.5h-.91Z"/><path d="M219.31,40.88c0,3.61-1.14,5.58-3.37,5.58s-3.42-1.9-3.42-5.56,1.33-5.3,3.44-5.3S219.31,37.35,219.31,40.88Zm-5.83,0c0,3.25.94,4.7,2.44,4.7s2.44-1.49,2.44-4.74c0-2.93-.85-4.43-2.44-4.43S213.48,37.68,213.48,40.92Z"/><path d="M221.49,39c0-2.15,0-2.8,0-3.24h.89c0,.25,0,.65,0,1.56A2.58,2.58,0,0,1,225,35.6c1.4,0,2.71.72,2.71,3.19v7.48h-.93V38.93c0-1.44-.56-2.46-1.9-2.46-1.75,0-2.45,1.2-2.45,3.72v6.08h-.94Z"/></svg>